<mxfile host="app.diagrams.net" modified="2020-08-23T23:36:39.765Z" agent="5.0 (Windows NT 10.0; Win64; x64) AppleWebKit/537.36 (KHTML, like Gecko) Chrome/84.0.4147.135 Safari/537.36" etag="7i4uLrvnSeQpIXQQw3R0" version="13.6.4" type="github">
  <diagram id="tHRCmtDcxh6QRpcp4tbq" name="Page-1">
    <mxGraphModel dx="1420" dy="872" grid="1" gridSize="10" guides="1" tooltips="1" connect="1" arrows="1" fold="1" page="1" pageScale="1" pageWidth="850" pageHeight="1100" math="0" shadow="0">
      <root>
        <mxCell id="0" />
        <mxCell id="1" parent="0" />
        <mxCell id="krljibpzaLmKUOyD2-q3-26" value="" style="rounded=1;whiteSpace=wrap;html=1;" parent="1" vertex="1">
          <mxGeometry x="70" y="320" width="710" height="260" as="geometry" />
        </mxCell>
        <mxCell id="krljibpzaLmKUOyD2-q3-24" value="" style="ellipse;whiteSpace=wrap;html=1;align=center;" parent="1" vertex="1">
          <mxGeometry x="290" width="270" height="180" as="geometry" />
        </mxCell>
        <mxCell id="krljibpzaLmKUOyD2-q3-22" value="" style="ellipse;whiteSpace=wrap;html=1;align=center;" parent="1" vertex="1">
          <mxGeometry x="640" y="130" width="200" height="180" as="geometry" />
        </mxCell>
        <mxCell id="krljibpzaLmKUOyD2-q3-20" value="" style="ellipse;whiteSpace=wrap;html=1;align=center;" parent="1" vertex="1">
          <mxGeometry x="10" y="130" width="205" height="180" as="geometry" />
        </mxCell>
        <mxCell id="krljibpzaLmKUOyD2-q3-1" value="Gen-Inet" style="ellipse;whiteSpace=wrap;html=1;aspect=fixed;" parent="1" vertex="1">
          <mxGeometry x="385" y="30" width="80" height="80" as="geometry" />
        </mxCell>
        <mxCell id="krljibpzaLmKUOyD2-q3-10" style="rounded=0;orthogonalLoop=1;jettySize=auto;html=1;exitX=1;exitY=0;exitDx=0;exitDy=0;entryX=0;entryY=1;entryDx=0;entryDy=0;endArrow=none;endFill=0;" parent="1" source="krljibpzaLmKUOyD2-q3-2" target="krljibpzaLmKUOyD2-q3-1" edge="1">
          <mxGeometry relative="1" as="geometry" />
        </mxCell>
        <mxCell id="krljibpzaLmKUOyD2-q3-12" style="edgeStyle=none;rounded=0;orthogonalLoop=1;jettySize=auto;html=1;exitX=0.5;exitY=1;exitDx=0;exitDy=0;entryX=0.5;entryY=0;entryDx=0;entryDy=0;endArrow=none;endFill=0;strokeColor=#000000;" parent="1" source="krljibpzaLmKUOyD2-q3-2" target="krljibpzaLmKUOyD2-q3-5" edge="1">
          <mxGeometry relative="1" as="geometry" />
        </mxCell>
        <mxCell id="krljibpzaLmKUOyD2-q3-2" value="ATT" style="ellipse;whiteSpace=wrap;html=1;aspect=fixed;" parent="1" vertex="1">
          <mxGeometry x="72.5" y="180" width="80" height="80" as="geometry" />
        </mxCell>
        <mxCell id="krljibpzaLmKUOyD2-q3-11" style="rounded=0;orthogonalLoop=1;jettySize=auto;html=1;exitX=0;exitY=0;exitDx=0;exitDy=0;entryX=1;entryY=1;entryDx=0;entryDy=0;endArrow=none;endFill=0;" parent="1" source="krljibpzaLmKUOyD2-q3-3" target="krljibpzaLmKUOyD2-q3-1" edge="1">
          <mxGeometry relative="1" as="geometry" />
        </mxCell>
        <mxCell id="krljibpzaLmKUOyD2-q3-13" style="edgeStyle=none;rounded=0;orthogonalLoop=1;jettySize=auto;html=1;exitX=0.5;exitY=1;exitDx=0;exitDy=0;entryX=0.5;entryY=0;entryDx=0;entryDy=0;endArrow=none;endFill=0;strokeColor=#000000;" parent="1" source="krljibpzaLmKUOyD2-q3-3" target="krljibpzaLmKUOyD2-q3-4" edge="1">
          <mxGeometry relative="1" as="geometry" />
        </mxCell>
        <mxCell id="krljibpzaLmKUOyD2-q3-3" value="ZAYO" style="ellipse;whiteSpace=wrap;html=1;aspect=fixed;" parent="1" vertex="1">
          <mxGeometry x="700" y="180" width="80" height="80" as="geometry" />
        </mxCell>
        <mxCell id="krljibpzaLmKUOyD2-q3-4" value="DR Inet" style="ellipse;whiteSpace=wrap;html=1;aspect=fixed;" parent="1" vertex="1">
          <mxGeometry x="640" y="350" width="80" height="80" as="geometry" />
        </mxCell>
        <mxCell id="krljibpzaLmKUOyD2-q3-14" style="edgeStyle=none;rounded=0;orthogonalLoop=1;jettySize=auto;html=1;exitX=0.5;exitY=1;exitDx=0;exitDy=0;entryX=0.5;entryY=0;entryDx=0;entryDy=0;endArrow=none;endFill=0;strokeColor=#000000;" parent="1" source="krljibpzaLmKUOyD2-q3-5" target="krljibpzaLmKUOyD2-q3-7" edge="1">
          <mxGeometry relative="1" as="geometry" />
        </mxCell>
        <mxCell id="krljibpzaLmKUOyD2-q3-15" style="edgeStyle=none;rounded=0;orthogonalLoop=1;jettySize=auto;html=1;exitX=1;exitY=0.5;exitDx=0;exitDy=0;entryX=0;entryY=0.5;entryDx=0;entryDy=0;endArrow=none;endFill=0;strokeColor=#000000;" parent="1" source="krljibpzaLmKUOyD2-q3-5" target="krljibpzaLmKUOyD2-q3-6" edge="1">
          <mxGeometry relative="1" as="geometry" />
        </mxCell>
        <mxCell id="krljibpzaLmKUOyD2-q3-5" value="DC Inet" style="ellipse;whiteSpace=wrap;html=1;aspect=fixed;" parent="1" vertex="1">
          <mxGeometry x="135" y="350" width="80" height="80" as="geometry" />
        </mxCell>
        <mxCell id="krljibpzaLmKUOyD2-q3-17" style="edgeStyle=none;rounded=0;orthogonalLoop=1;jettySize=auto;html=1;exitX=0.5;exitY=0;exitDx=0;exitDy=0;entryX=0.5;entryY=1;entryDx=0;entryDy=0;endArrow=none;endFill=0;strokeColor=#000000;" parent="1" source="krljibpzaLmKUOyD2-q3-6" target="krljibpzaLmKUOyD2-q3-4" edge="1">
          <mxGeometry relative="1" as="geometry" />
        </mxCell>
        <mxCell id="krljibpzaLmKUOyD2-q3-19" style="edgeStyle=none;rounded=0;orthogonalLoop=1;jettySize=auto;html=1;exitX=0.5;exitY=1;exitDx=0;exitDy=0;entryX=0.5;entryY=0;entryDx=0;entryDy=0;endArrow=none;endFill=0;strokeColor=#000000;" parent="1" source="krljibpzaLmKUOyD2-q3-6" target="krljibpzaLmKUOyD2-q3-8" edge="1">
          <mxGeometry relative="1" as="geometry" />
        </mxCell>
        <mxCell id="krljibpzaLmKUOyD2-q3-6" value="DR Transit" style="ellipse;whiteSpace=wrap;html=1;aspect=fixed;" parent="1" vertex="1">
          <mxGeometry x="640" y="470" width="80" height="80" as="geometry" />
        </mxCell>
        <mxCell id="krljibpzaLmKUOyD2-q3-16" style="edgeStyle=none;rounded=0;orthogonalLoop=1;jettySize=auto;html=1;exitX=1;exitY=0.5;exitDx=0;exitDy=0;entryX=0;entryY=0.5;entryDx=0;entryDy=0;endArrow=none;endFill=0;strokeColor=#000000;" parent="1" source="krljibpzaLmKUOyD2-q3-7" target="krljibpzaLmKUOyD2-q3-4" edge="1">
          <mxGeometry relative="1" as="geometry" />
        </mxCell>
        <mxCell id="krljibpzaLmKUOyD2-q3-18" style="edgeStyle=none;rounded=0;orthogonalLoop=1;jettySize=auto;html=1;exitX=0.5;exitY=1;exitDx=0;exitDy=0;entryX=0.5;entryY=0;entryDx=0;entryDy=0;endArrow=none;endFill=0;strokeColor=#000000;" parent="1" source="krljibpzaLmKUOyD2-q3-7" target="krljibpzaLmKUOyD2-q3-9" edge="1">
          <mxGeometry relative="1" as="geometry" />
        </mxCell>
        <mxCell id="krljibpzaLmKUOyD2-q3-7" value="DC Transit" style="ellipse;whiteSpace=wrap;html=1;aspect=fixed;" parent="1" vertex="1">
          <mxGeometry x="135" y="470" width="80" height="80" as="geometry" />
        </mxCell>
        <mxCell id="krljibpzaLmKUOyD2-q3-8" value="DR Network" style="ellipse;whiteSpace=wrap;html=1;aspect=fixed;" parent="1" vertex="1">
          <mxGeometry x="640" y="640" width="80" height="80" as="geometry" />
        </mxCell>
        <mxCell id="krljibpzaLmKUOyD2-q3-9" value="DC Network" style="ellipse;whiteSpace=wrap;html=1;aspect=fixed;" parent="1" vertex="1">
          <mxGeometry x="135" y="640" width="80" height="80" as="geometry" />
        </mxCell>
        <mxCell id="krljibpzaLmKUOyD2-q3-21" value="AS7018" style="text;html=1;strokeColor=none;fillColor=none;align=center;verticalAlign=middle;whiteSpace=wrap;rounded=0;" parent="1" vertex="1">
          <mxGeometry x="92.5" y="140" width="40" height="20" as="geometry" />
        </mxCell>
        <mxCell id="krljibpzaLmKUOyD2-q3-23" value="AS6461" style="text;html=1;strokeColor=none;fillColor=none;align=center;verticalAlign=middle;whiteSpace=wrap;rounded=0;" parent="1" vertex="1">
          <mxGeometry x="720" y="140" width="40" height="20" as="geometry" />
        </mxCell>
        <mxCell id="krljibpzaLmKUOyD2-q3-25" value="AS456" style="text;html=1;strokeColor=none;fillColor=none;align=center;verticalAlign=middle;whiteSpace=wrap;rounded=0;" parent="1" vertex="1">
          <mxGeometry x="405" y="130" width="40" height="20" as="geometry" />
        </mxCell>
        <mxCell id="krljibpzaLmKUOyD2-q3-27" value="DC&lt;br&gt;AS25251" style="text;html=1;strokeColor=none;fillColor=none;align=center;verticalAlign=middle;whiteSpace=wrap;rounded=0;" parent="1" vertex="1">
          <mxGeometry x="290" y="350" width="40" height="20" as="geometry" />
        </mxCell>
        <mxCell id="krljibpzaLmKUOyD2-q3-29" value="" style="endArrow=none;dashed=1;html=1;strokeColor=#000000;jumpSize=5;strokeWidth=6;" parent="1" edge="1">
          <mxGeometry width="50" height="50" relative="1" as="geometry">
            <mxPoint x="427" y="729" as="sourcePoint" />
            <mxPoint x="427" y="199" as="targetPoint" />
          </mxGeometry>
        </mxCell>
        <mxCell id="krljibpzaLmKUOyD2-q3-33" value="DR&lt;br&gt;AS25251" style="text;html=1;strokeColor=none;fillColor=none;align=center;verticalAlign=middle;whiteSpace=wrap;rounded=0;" parent="1" vertex="1">
          <mxGeometry x="520" y="350" width="40" height="20" as="geometry" />
        </mxCell>
        <mxCell id="krljibpzaLmKUOyD2-q3-35" value="155.1.89.0/24" style="text;html=1;strokeColor=none;fillColor=none;align=center;verticalAlign=middle;whiteSpace=wrap;rounded=0;" parent="1" vertex="1">
          <mxGeometry x="180" y="730" width="40" height="20" as="geometry" />
        </mxCell>
        <mxCell id="krljibpzaLmKUOyD2-q3-37" value="155.1.111.0/24" style="text;html=1;strokeColor=none;fillColor=none;align=center;verticalAlign=middle;whiteSpace=wrap;rounded=0;" parent="1" vertex="1">
          <mxGeometry x="620" y="730" width="40" height="20" as="geometry" />
        </mxCell>
        <mxCell id="DhfdzboClTJNaPiJxaH3-1" value="10.10.10.1/24" style="text;html=1;strokeColor=none;fillColor=none;align=center;verticalAlign=middle;whiteSpace=wrap;rounded=0;" vertex="1" parent="1">
          <mxGeometry x="180" y="760" width="40" height="20" as="geometry" />
        </mxCell>
        <mxCell id="DhfdzboClTJNaPiJxaH3-2" value="10.10.20.1/24" style="text;html=1;strokeColor=none;fillColor=none;align=center;verticalAlign=middle;whiteSpace=wrap;rounded=0;" vertex="1" parent="1">
          <mxGeometry x="620" y="760" width="40" height="20" as="geometry" />
        </mxCell>
      </root>
    </mxGraphModel>
  </diagram>
</mxfile>
